<?xml version="1.0" standalone="no"?><svg xmlns="http://www.w3.org/2000/svg" viewBox="0 0 1440 320"><path fill="#f3f4f5" fill-opacity="1" d="M0,224L34.3,197.3C68.6,171,137,117,206,106.7C274.3,96,343,128,411,133.3C480,139,549,117,617,90.7C685.7,64,754,32,823,26.7C891.4,21,960,43,1029,85.3C1097.1,128,1166,192,1234,181.3C1302.9,171,1371,85,1406,42.7L1440,0L1440,0L1405.7,0C1371.4,0,1303,0,1234,0C1165.7,0,1097,0,1029,0C960,0,891,0,823,0C754.3,0,686,0,617,0C548.6,0,480,0,411,0C342.9,0,274,0,206,0C137.1,0,69,0,34,0L0,0Z"></path></svg>