<?xml version="1.0" standalone="no"?><svg xmlns="http://www.w3.org/2000/svg" viewBox="0 0 1440 320"><path fill="#ffffff" fill-opacity="1" d="M0,224L30,192C60,160,120,96,180,101.3C240,107,300,181,360,202.7C420,224,480,192,540,154.7C600,117,660,75,720,69.3C780,64,840,96,900,101.3C960,107,1020,85,1080,69.3C1140,53,1200,43,1260,69.3C1320,96,1380,160,1410,192L1440,224L1440,0L1410,0C1380,0,1320,0,1260,0C1200,0,1140,0,1080,0C1020,0,960,0,900,0C840,0,780,0,720,0C660,0,600,0,540,0C480,0,420,0,360,0C300,0,240,0,180,0C120,0,60,0,30,0L0,0Z"></path></svg>